<svg fill="none" height="40" viewBox="0 0 207 40" xmlns="http://www.w3.org/2000/svg" class="Navbar_logo__XkqHh">
  <path d="M2 40C0.89543 40 0 39.1046 0 38V2C0 0.895431 0.895431 0 2 0H22.47C25.9046 0 28.7392 0.703935 30.9738 2.1118C33.2084 3.51967 34.8636 5.40373 35.9395 7.76397C37.0568 10.1242 37.6155 12.7329 37.6155 15.5901C37.6155 18.4886 36.9741 21.118 35.6912 23.4783C34.4498 25.7971 32.6704 27.6398 30.3531 29.0062C28.0771 30.3727 25.3666 31.0559 22.2217 31.0559H16.0214C15.4691 31.0559 15.0214 31.5036 15.0214 32.0559V38C15.0214 39.1046 14.1259 40 13.0214 40H2ZM15.0214 18.3168C15.0214 18.8691 15.4691 19.3168 16.0214 19.3168H18.6836C19.8836 19.3168 20.794 18.9855 21.4147 18.323C22.0355 17.6605 22.3458 16.7495 22.3458 15.5901C22.3458 13.0228 21.2078 11.7391 18.9319 11.7391H16.0214C15.4691 11.7391 15.0214 12.1868 15.0214 12.7391V18.3168Z" fill="#FAFAFA"></path>
  <path d="M41.4616 40C40.357 40 39.4616 39.1046 39.4616 38V2C39.4616 0.895431 40.357 0 41.4616 0H61.9316C65.3662 0 68.2008 0.662526 70.4354 1.98758C72.67 3.27122 74.3252 5.05176 75.4011 7.32919C76.5184 9.56522 77.0771 12.1118 77.0771 14.9689C77.0771 17.6605 76.3736 20.0207 74.9666 22.0497C73.8842 23.658 72.6198 25.0451 71.1733 26.2112C70.6354 26.6448 70.673 27.4996 71.0561 28.0745C71.3044 28.4058 71.5113 28.7578 71.6768 29.1304L75.1807 37.2037C75.7539 38.5245 74.7858 40 73.346 40H62.0569C61.264 40 60.546 39.5316 60.2265 38.8059L56.8417 31.118C56.6348 30.6211 56.4072 30.2899 56.1589 30.1242C55.9106 29.9172 55.5589 29.8137 55.1037 29.8137C54.7609 29.8137 54.483 30.0916 54.483 30.4344V38C54.483 39.1046 53.5875 40 52.483 40H41.4616ZM54.483 17.0745C54.483 17.6268 54.9307 18.0745 55.483 18.0745H58.1452C60.5867 18.0745 61.8074 17.0393 61.8074 14.9689C61.8074 13.8095 61.5178 12.9814 60.9384 12.4845C60.4005 11.9876 59.5522 11.7391 58.3935 11.7391H55.483C54.9307 11.7391 54.483 12.1868 54.483 12.7391V17.0745Z" fill="#FAFAFA"></path>
  <path d="M82.1962 40C81.0916 40 80.1962 39.1046 80.1962 38V2C80.1962 0.895431 81.0916 0 82.1962 0H110.163C111.268 0 112.163 0.895431 112.163 2V8.80746C112.163 9.91203 111.268 10.8075 110.163 10.8075H96.2175C95.6652 10.8075 95.2175 11.2552 95.2175 11.8075V13.4099C95.2175 13.9622 95.6652 14.4099 96.2175 14.4099H107.804C108.909 14.4099 109.804 15.3054 109.804 16.4099V23.5901C109.804 24.6946 108.909 25.5901 107.804 25.5901H96.2175C95.6653 25.5901 95.2175 26.0378 95.2175 26.5901V28.1925C95.2175 28.7448 95.6652 29.1925 96.2175 29.1925H110.163C111.268 29.1925 112.163 30.088 112.163 31.1925V38C112.163 39.1046 111.268 40 110.163 40H82.1962Z" fill="#FAFAFA"></path>
  <path d="M117.187 40C115.783 40 114.816 38.5917 115.32 37.2817L129.175 1.28167C129.472 0.509483 130.214 0 131.041 0H143.875C144.702 0 145.444 0.509481 145.741 1.28167L159.596 37.2817C160.1 38.5917 159.133 40 157.729 40H146.375C145.547 40 144.804 39.4892 144.508 38.7155L142.636 33.8311C142.34 33.0574 141.597 32.5466 140.769 32.5466H134.147C133.319 32.5466 132.576 33.0574 132.279 33.8311L130.408 38.7155C130.112 39.4892 129.369 40 128.541 40H117.187ZM134.931 20.9283C134.669 21.5849 135.153 22.2981 135.86 22.2981H138.994C139.701 22.2981 140.185 21.5849 139.923 20.9283L138.356 16.9921C138.022 16.1519 136.832 16.1519 136.498 16.9921L134.931 20.9283Z" fill="#9333EA"></path>
  <path d="M164.618 40C162.975 40 162.033 38.129 163.011 36.8091L175.352 20.1586C175.613 19.8059 175.614 19.3239 175.354 18.9704L163.736 3.18555C162.764 1.8649 163.707 0 165.346 0H178.321C178.955 0 179.552 0.301066 179.929 0.811334L183.992 6.30922C184.391 6.84829 185.196 6.85047 185.598 6.31356L189.717 0.80265C190.094 0.29748 190.688 0 191.318 0H204.3C205.94 0 206.883 1.8649 205.91 3.18555L194.292 18.9704C194.032 19.3239 194.033 19.8059 194.294 20.1586L206.635 36.8091C207.613 38.129 206.671 40 205.028 40H191.821C191.187 40 190.591 39.6993 190.213 39.1897L185.6 32.9553C185.199 32.4134 184.388 32.4154 183.989 32.9593L179.432 39.1817C179.056 39.6961 178.456 40 177.819 40H164.618Z" fill="#9333EA"></path>
</svg>