<svg xmlns="http://www.w3.org/2000/svg" width="20" height="20" viewBox="0 0 20 20" fill="#BDBDBD">
  <path d="M10 15C12.2091 15 14 13.2091 14 11H6C6 13.2091 7.79086 15 10 15Z" />
  <path d="M8 8C8 8.55229 7.55228 9 7 9C6.44772 9 6 8.55229 6 8C6 7.44772 6.44772 7 7 7C7.55228 7 8 7.44772 8 8Z" />
  <path d="M13 9C13.5523 9 14 8.55229 14 8C14 7.44772 13.5523 7 13 7C12.4477 7 12 7.44772 12 8C12 8.55229 12.4477 9 13 9Z" />
  <path fill-rule="evenodd" clip-rule="evenodd" d="M20 10C20 15.5228 15.5228 20 10 20C4.47715 20 0 15.5228 0 10C0 4.47715 4.47715 0 10 0C15.5228 0 20 4.47715 20 10ZM18 10C18 14.4183 14.4183 18 10 18C5.58172 18 2 14.4183 2 10C2 5.58172 5.58172 2 10 2C14.4183 2 18 5.58172 18 10Z" />
</svg>